<svg xmlns="http://www.w3.org/2000/svg" width="78" height="42" viewBox="0 0 78 42">
  <g id="Group_137084" data-name="Group 137084" transform="translate(-120 -19)">
    <rect id="Rectangle_46331" data-name="Rectangle 46331" width="78" height="42" transform="translate(120 19)" fill="none"/>
    <g id="Group_134122" data-name="Group 134122" transform="translate(120 14.088)">
      <g id="Group_134124" data-name="Group 134124" transform="translate(0 9.912)">
        <g id="Group_134122-2" data-name="Group 134122" transform="translate(0 9.139)">
          <path id="Path_65722" data-name="Path 65722" d="M338.9,230.366h-6.075a.644.644,0,0,0-.629.519A8.862,8.862,0,0,1,323.556,238a8.73,8.73,0,0,1-5.755-2.165.877.877,0,0,0-1.2.037l-3.946,3.946a.874.874,0,0,0,.019,1.257,15.958,15.958,0,0,0,10.88,4.284A16.192,16.192,0,0,0,339.544,231.1.65.65,0,0,0,338.9,230.366Z" transform="translate(-312.399 -230.366)" fill="#ff5a5a"/>
        </g>
        <g id="Group_134123" data-name="Group 134123" transform="translate(19.971 0)">
          <path id="Path_65723" data-name="Path 65723" d="M687.222,353.482a3.574,3.574,0,1,0,3.573,3.573A3.574,3.574,0,0,0,687.222,353.482Z" transform="translate(-653.274 -327.647)" fill="#ff5a5a"/>
          <path id="Path_65724" data-name="Path 65724" d="M463.239,162.974a3.574,3.574,0,1,0,3.574,3.573A3.574,3.574,0,0,0,463.239,162.974Z" transform="translate(-459.666 -162.974)" fill="#ff5a5a"/>
          <path id="Path_65725" data-name="Path 65725" d="M622.933,229.219h-6.109a.647.647,0,0,0-.632.522,8.856,8.856,0,0,1-17.384,0,.647.647,0,0,0-.634-.522l-6.106.02a.654.654,0,0,0-.642.738,16.182,16.182,0,0,0,32.151-.022A.654.654,0,0,0,622.933,229.219Z" transform="translate(-573.554 -220.235)" fill="#ff5a5a"/>
          <rect id="Rectangle_42921" data-name="Rectangle 42921" width="7.147" height="15.085" rx="1" transform="translate(8.953 8.984)" fill="#ff5a5a"/>
        </g>
      </g>
    </g>
  </g>
</svg>
